<svg width="116" height="100" viewBox="0 0 116 100" fill="none" xmlns="http://www.w3.org/2000/svg">
<g clipPath="url(#clip0_74_402)">
<path d="M112.456 18.1406H106.655L109.154 13.9803C111.684 9.76774 110.339 4.26735 106.15 1.71406C104.77 0.877894 103.189 0.435547 101.579 0.435547C98.4773 0.435547 95.5572 2.08548 93.9618 4.74142L85.9123 18.1424H10.7696C9.08513 18.1424 7.71603 19.5199 7.71603 21.2146V27.4504C3.59575 28.3145 0.490234 31.9914 0.490234 36.3906C0.490234 40.7917 3.59575 44.4742 7.71603 45.3383V50.0511C3.59575 50.9152 0.490234 54.594 0.490234 58.9913C0.490234 63.3905 3.59575 67.0711 7.71603 67.9353V72.6481C3.59575 73.5122 0.490234 77.191 0.490234 81.5902C0.490234 85.9894 3.59575 89.67 7.71603 90.5341V96.7736C7.71603 98.4628 9.08699 99.8402 10.7696 99.8402H112.456C114.14 99.8402 115.509 98.4646 115.509 96.7736V21.2146C115.509 19.5199 114.138 18.1406 112.456 18.1406ZM74.9614 45.6817L81.9627 49.9391L73.9893 55.2566L74.9614 45.6817ZM84.7992 47.3037L75.9576 41.9302L93.691 12.4088L102.533 17.7822L84.7992 47.3037ZM101.579 4.16842C102.514 4.16842 103.434 4.42599 104.232 4.90753C106.668 6.39322 107.452 9.59603 105.978 12.0467L104.451 14.5869L95.6092 9.21341L97.136 6.67132C98.0636 5.12777 99.7666 4.16842 101.579 4.16842ZM4.20053 36.3906C4.20053 34.0706 5.6698 32.1034 7.71603 31.34V41.4468C5.6698 40.6834 4.20053 38.7143 4.20053 36.3906ZM4.20053 58.9913C4.20053 56.6713 5.6698 54.7041 7.71603 53.9407V64.0456C5.6698 63.2804 4.20053 61.3132 4.20053 58.9913ZM4.20053 81.5902C4.20053 79.2702 5.6698 77.3029 7.71603 76.5396V86.6445C5.6698 85.8774 4.20053 83.912 4.20053 81.5902ZM11.4263 76.5396C13.4726 77.3029 14.9418 79.2702 14.9418 81.5902C14.9418 82.6223 15.7729 83.4566 16.797 83.4566C17.821 83.4566 18.6521 82.6223 18.6521 81.5902C18.6521 77.1928 15.5466 73.5141 11.4263 72.6499V53.9407C13.4726 54.7041 14.9418 56.6713 14.9418 58.9913C14.9418 60.0235 15.7729 60.8578 16.797 60.8578C17.821 60.8578 18.6521 60.0235 18.6521 58.9913C18.6521 54.594 15.5466 50.9152 11.4263 50.0511V31.34C13.4726 32.1034 14.9418 34.0706 14.9418 36.3906C14.9418 37.4228 15.7729 38.2571 16.797 38.2571C17.821 38.2571 18.6521 37.4228 18.6521 36.3906C18.6521 31.9933 15.5466 28.3145 11.4263 27.4504V21.8753H26.5142V96.1054H11.4263V76.5396ZM111.799 96.1054H30.2227V21.8735H83.6695L71.8244 41.5942C71.6834 41.8313 71.5943 42.0963 71.5665 42.3707L70.0805 57.0278C65.3351 56.4978 64.0791 53.644 62.6599 50.3796C61.3298 47.3186 59.6731 43.5111 54.5177 43.5111C49.6776 43.5111 47.8855 47.1058 46.3049 50.2788C44.4739 53.9519 42.8933 57.123 37.0793 57.123C36.0553 57.123 35.2242 57.9573 35.2242 58.9895C35.2242 60.0216 36.0553 60.8559 37.0793 60.8559C45.1844 60.8559 47.7482 55.7083 49.6219 51.9511C51.1636 48.8584 52.0819 47.244 54.5195 47.244C57.1334 47.244 57.9033 48.7483 59.2632 51.8746C60.9105 55.6635 63.1664 60.8559 71.7483 60.8559C72.1063 60.8559 72.4625 60.7514 72.7742 60.5461L86.4559 51.421C86.6841 51.268 86.877 51.0664 87.018 50.8313L104.412 21.8716H111.799V96.1054Z" fill="white" stroke="white"/>
</g>
<defs>
<clipPath id="clip0_74_402">
<rect width="116" height="100" fill="white"/>
</clipPath>
</defs>
</svg>
