<svg width="157" height="63" viewBox="0 0 164 71" fill="none" xmlns="http://www.w3.org/2000/svg">
<circle cx="51" cy="26" r="24.2" stroke="#FF4E02" stroke-width="3.6"/>
<rect x="19" y="22" width="61" height="38" fill="white"/>
<path d="M21.5742 47.7803V51H6.64453V47.7803H21.5742ZM7.42383 21.1406V51H3.46582V21.1406H7.42383ZM29.6543 28.8105V51H25.8398V28.8105H29.6543ZM25.5527 22.9248C25.5527 22.3096 25.7373 21.79 26.1064 21.3662C26.4893 20.9424 27.0498 20.7305 27.7881 20.7305C28.5127 20.7305 29.0664 20.9424 29.4492 21.3662C29.8457 21.79 30.0439 22.3096 30.0439 22.9248C30.0439 23.5127 29.8457 24.0186 29.4492 24.4424C29.0664 24.8525 28.5127 25.0576 27.7881 25.0576C27.0498 25.0576 26.4893 24.8525 26.1064 24.4424C25.7373 24.0186 25.5527 23.5127 25.5527 22.9248ZM41.4053 51H37.6113V26.4727C37.6113 24.873 37.8984 23.5264 38.4727 22.4326C39.0605 21.3252 39.9014 20.4912 40.9951 19.9307C42.0889 19.3564 43.3877 19.0693 44.8916 19.0693C45.3291 19.0693 45.7666 19.0967 46.2041 19.1514C46.6553 19.2061 47.0928 19.2881 47.5166 19.3975L47.3115 22.4941C47.0244 22.4258 46.6963 22.3779 46.3271 22.3506C45.9717 22.3232 45.6162 22.3096 45.2607 22.3096C44.4541 22.3096 43.7568 22.4736 43.1689 22.8018C42.5947 23.1162 42.1572 23.5811 41.8564 24.1963C41.5557 24.8115 41.4053 25.5703 41.4053 26.4727V51ZM46.1221 28.8105V31.7227H34.1045V28.8105H46.1221ZM59.0625 51.4102C57.5176 51.4102 56.1162 51.1504 54.8584 50.6309C53.6143 50.0977 52.541 49.3525 51.6387 48.3955C50.75 47.4385 50.0664 46.3037 49.5879 44.9912C49.1094 43.6787 48.8701 42.2432 48.8701 40.6846V39.8232C48.8701 38.0186 49.1367 36.4121 49.6699 35.0039C50.2031 33.582 50.9277 32.3789 51.8438 31.3945C52.7598 30.4102 53.7988 29.665 54.9609 29.1592C56.123 28.6533 57.3262 28.4004 58.5703 28.4004C60.1562 28.4004 61.5234 28.6738 62.6719 29.2207C63.834 29.7676 64.7842 30.5332 65.5225 31.5176C66.2607 32.4883 66.8076 33.6367 67.1631 34.9629C67.5186 36.2754 67.6963 37.7109 67.6963 39.2695V40.9717H51.126V37.875H63.9023V37.5879C63.8477 36.6035 63.6426 35.6465 63.2871 34.7168C62.9453 33.7871 62.3984 33.0215 61.6465 32.4199C60.8945 31.8184 59.8691 31.5176 58.5703 31.5176C57.709 31.5176 56.916 31.7021 56.1914 32.0713C55.4668 32.4268 54.8447 32.96 54.3252 33.6709C53.8057 34.3818 53.4023 35.25 53.1152 36.2754C52.8281 37.3008 52.6846 38.4834 52.6846 39.8232V40.6846C52.6846 41.7373 52.8281 42.7285 53.1152 43.6582C53.416 44.5742 53.8467 45.3809 54.4072 46.0781C54.9814 46.7754 55.6719 47.3223 56.4785 47.7188C57.2988 48.1152 58.2285 48.3135 59.2676 48.3135C60.6074 48.3135 61.7422 48.04 62.6719 47.4932C63.6016 46.9463 64.415 46.2148 65.1123 45.2988L67.4092 47.124C66.9307 47.8486 66.3223 48.5391 65.584 49.1953C64.8457 49.8516 63.9365 50.3848 62.8564 50.7949C61.79 51.2051 60.5254 51.4102 59.0625 51.4102ZM103.975 51.4102C102.43 51.4102 101.028 51.1504 99.7705 50.6309C98.5264 50.0977 97.4531 49.3525 96.5508 48.3955C95.6621 47.4385 94.9785 46.3037 94.5 44.9912C94.0215 43.6787 93.7822 42.2432 93.7822 40.6846V39.8232C93.7822 38.0186 94.0488 36.4121 94.582 35.0039C95.1152 33.582 95.8398 32.3789 96.7559 31.3945C97.6719 30.4102 98.7109 29.665 99.873 29.1592C101.035 28.6533 102.238 28.4004 103.482 28.4004C105.068 28.4004 106.436 28.6738 107.584 29.2207C108.746 29.7676 109.696 30.5332 110.435 31.5176C111.173 32.4883 111.72 33.6367 112.075 34.9629C112.431 36.2754 112.608 37.7109 112.608 39.2695V40.9717H96.0381V37.875H108.814V37.5879C108.76 36.6035 108.555 35.6465 108.199 34.7168C107.857 33.7871 107.311 33.0215 106.559 32.4199C105.807 31.8184 104.781 31.5176 103.482 31.5176C102.621 31.5176 101.828 31.7021 101.104 32.0713C100.379 32.4268 99.7568 32.96 99.2373 33.6709C98.7178 34.3818 98.3145 35.25 98.0273 36.2754C97.7402 37.3008 97.5967 38.4834 97.5967 39.8232V40.6846C97.5967 41.7373 97.7402 42.7285 98.0273 43.6582C98.3281 44.5742 98.7588 45.3809 99.3193 46.0781C99.8936 46.7754 100.584 47.3223 101.391 47.7188C102.211 48.1152 103.141 48.3135 104.18 48.3135C105.52 48.3135 106.654 48.04 107.584 47.4932C108.514 46.9463 109.327 46.2148 110.024 45.2988L112.321 47.124C111.843 47.8486 111.234 48.5391 110.496 49.1953C109.758 49.8516 108.849 50.3848 107.769 50.7949C106.702 51.2051 105.438 51.4102 103.975 51.4102ZM130.122 47.2061V35.7832C130.122 34.9082 129.944 34.1494 129.589 33.5068C129.247 32.8506 128.728 32.3447 128.03 31.9893C127.333 31.6338 126.472 31.4561 125.446 31.4561C124.489 31.4561 123.648 31.6201 122.924 31.9482C122.213 32.2764 121.652 32.707 121.242 33.2402C120.846 33.7734 120.647 34.3477 120.647 34.9629H116.854C116.854 34.1699 117.059 33.3838 117.469 32.6045C117.879 31.8252 118.467 31.1211 119.232 30.4922C120.012 29.8496 120.941 29.3438 122.021 28.9746C123.115 28.5918 124.332 28.4004 125.672 28.4004C127.285 28.4004 128.707 28.6738 129.938 29.2207C131.182 29.7676 132.152 30.5947 132.85 31.7021C133.561 32.7959 133.916 34.1699 133.916 35.8242V46.1602C133.916 46.8984 133.978 47.6846 134.101 48.5186C134.237 49.3525 134.436 50.0703 134.695 50.6719V51H130.737C130.546 50.5625 130.396 49.9814 130.286 49.2568C130.177 48.5186 130.122 47.835 130.122 47.2061ZM130.778 37.5469L130.819 40.2129H126.984C125.904 40.2129 124.94 40.3018 124.093 40.4795C123.245 40.6436 122.534 40.8965 121.96 41.2383C121.386 41.5801 120.948 42.0107 120.647 42.5303C120.347 43.0361 120.196 43.6309 120.196 44.3145C120.196 45.0117 120.354 45.6475 120.668 46.2217C120.982 46.7959 121.454 47.2539 122.083 47.5957C122.726 47.9238 123.512 48.0879 124.441 48.0879C125.604 48.0879 126.629 47.8418 127.518 47.3496C128.406 46.8574 129.11 46.2559 129.63 45.5449C130.163 44.834 130.45 44.1436 130.491 43.4736L132.111 45.2988C132.016 45.873 131.756 46.5088 131.332 47.2061C130.908 47.9033 130.341 48.5732 129.63 49.2158C128.933 49.8447 128.099 50.3711 127.128 50.7949C126.171 51.2051 125.091 51.4102 123.888 51.4102C122.384 51.4102 121.064 51.1162 119.93 50.5283C118.809 49.9404 117.934 49.1543 117.305 48.1699C116.689 47.1719 116.382 46.0576 116.382 44.8271C116.382 43.6377 116.614 42.5918 117.079 41.6895C117.544 40.7734 118.214 40.0146 119.089 39.4131C119.964 38.7979 121.017 38.333 122.247 38.0186C123.478 37.7041 124.852 37.5469 126.369 37.5469H130.778ZM143.678 33.0762V59.5312H139.863V28.8105H143.35L143.678 33.0762ZM158.628 39.7207V40.1514C158.628 41.7646 158.437 43.2617 158.054 44.6426C157.671 46.0098 157.11 47.1992 156.372 48.2109C155.647 49.2227 154.752 50.0088 153.686 50.5693C152.619 51.1299 151.396 51.4102 150.015 51.4102C148.606 51.4102 147.362 51.1777 146.282 50.7129C145.202 50.248 144.286 49.5713 143.534 48.6826C142.782 47.7939 142.181 46.7275 141.729 45.4834C141.292 44.2393 140.991 42.8379 140.827 41.2793V38.9824C140.991 37.3418 141.299 35.8721 141.75 34.5732C142.201 33.2744 142.796 32.167 143.534 31.251C144.286 30.3213 145.195 29.6172 146.262 29.1387C147.328 28.6465 148.559 28.4004 149.953 28.4004C151.348 28.4004 152.585 28.6738 153.665 29.2207C154.745 29.7539 155.654 30.5195 156.393 31.5176C157.131 32.5156 157.685 33.7119 158.054 35.1064C158.437 36.4873 158.628 38.0254 158.628 39.7207ZM154.813 40.1514V39.7207C154.813 38.6133 154.697 37.5742 154.465 36.6035C154.232 35.6191 153.87 34.7578 153.378 34.0195C152.899 33.2676 152.284 32.6797 151.532 32.2559C150.78 31.8184 149.885 31.5996 148.846 31.5996C147.889 31.5996 147.055 31.7637 146.344 32.0918C145.646 32.4199 145.052 32.8643 144.56 33.4248C144.067 33.9717 143.664 34.6006 143.35 35.3115C143.049 36.0088 142.823 36.7334 142.673 37.4854V42.7969C142.946 43.7539 143.329 44.6562 143.821 45.5039C144.313 46.3379 144.97 47.0146 145.79 47.5342C146.61 48.04 147.643 48.293 148.887 48.293C149.912 48.293 150.794 48.0811 151.532 47.6572C152.284 47.2197 152.899 46.625 153.378 45.873C153.87 45.1211 154.232 44.2598 154.465 43.2891C154.697 42.3047 154.813 41.2588 154.813 40.1514Z" fill="#0285FF"/>
<path d="M90.8086 47.7803V51H75.8789V47.7803H90.8086ZM76.6582 21.1406V51H72.7002V21.1406H76.6582Z" fill="#FF4E02"/>
<circle cx="27" cy="22" r="4" fill="#FF4E02"/>
</svg>
