<svg width="115" height="88" viewBox="0 0 115 88" fill="none" xmlns="http://www.w3.org/2000/svg">
<g clipPath="url(#clip0_70_108)">
<path d="M34.7641 83.4254C34.7641 85.5037 33.0676 87.1884 30.9748 87.1884H29.0801C18.6163 87.1884 10.1335 78.7646 10.1335 68.3736V55.7326C10.1335 54.666 9.67754 53.6493 8.87908 52.9358L1.91456 46.7113C1.11609 45.9976 0.660156 44.9811 0.660156 43.9143C0.660156 42.8475 1.11609 41.8309 1.91456 41.1173L8.87908 34.8927C9.67754 34.1793 10.1335 33.1625 10.1335 32.0957V19.455C10.1335 9.06392 18.6163 0.640137 29.0801 0.640137H30.9748C33.0676 0.640137 34.7641 2.32487 34.7641 4.4031C34.7641 6.48139 33.0676 8.16607 30.9748 8.16607H29.0801C22.8018 8.16607 17.7121 13.2203 17.7121 19.455V32.0957C17.7121 35.2961 16.3444 38.346 13.9489 40.4868L10.1139 43.9143L13.9489 47.3418C16.3444 49.4825 17.7121 52.5324 17.7121 55.7326V68.3736C17.7121 74.6082 22.8018 79.6625 29.0801 79.6625H30.9748C33.0676 79.6625 34.7641 81.3471 34.7641 83.4254Z" fill="white"/>
<path d="M80.2358 83.4254C80.2358 85.5037 81.9323 87.1884 84.0252 87.1884H85.9198C96.3837 87.1884 104.866 78.7646 104.866 68.3736V55.7326C104.866 54.666 105.322 53.6493 106.121 52.9358L113.085 46.7113C113.884 45.9976 114.34 44.9811 114.34 43.9143C114.34 42.8475 113.884 41.8309 113.085 41.1173L106.121 34.8927C105.322 34.1793 104.866 33.1625 104.866 32.0957V19.455C104.866 9.06392 96.3837 0.640137 85.9198 0.640137H84.0252C81.9323 0.640137 80.2358 2.32487 80.2358 4.4031C80.2358 6.48139 81.9323 8.16607 84.0252 8.16607H85.9198C92.1982 8.16607 97.2878 13.2203 97.2878 19.455V32.0957C97.2878 35.2961 98.6556 38.346 101.051 40.4868L104.886 43.9143L101.051 47.3418C98.6556 49.4825 97.2878 52.5324 97.2878 55.7326V68.3736C97.2878 74.6082 92.1982 79.6625 85.9198 79.6625H84.0252C81.9323 79.6625 80.2358 81.3471 80.2358 83.4254Z" fill="white"/>
<path d="M38.5535 47.6772C40.6463 47.6772 42.3428 45.9925 42.3428 43.9142C42.3428 41.8359 40.6463 40.1512 38.5535 40.1512C36.4606 40.1512 34.7642 41.8359 34.7642 43.9142C34.7642 45.9925 36.4606 47.6772 38.5535 47.6772Z" fill="white"/>
<path d="M57.4998 47.6772C59.5926 47.6772 61.2891 45.9925 61.2891 43.9142C61.2891 41.8359 59.5926 40.1512 57.4998 40.1512C55.4069 40.1512 53.7104 41.8359 53.7104 43.9142C53.7104 45.9925 55.4069 47.6772 57.4998 47.6772Z" fill="white"/>
<path d="M80.2359 43.9142C80.2359 45.9925 78.5394 47.6772 76.4466 47.6772C74.3537 47.6772 72.6572 45.9925 72.6572 43.9142C72.6572 41.8359 74.3537 40.1512 76.4466 40.1512C78.5394 40.1512 80.2359 41.8359 80.2359 43.9142Z" fill="white"/>
</g>
<defs>
<clipPath id="clip0_70_108">
<rect width="115" height="87.6733" fill="white"/>
</clipPath>
</defs>
</svg>
